<svg width="30" height="30" viewBox="0 0 30 30" fill="none" xmlns="http://www.w3.org/2000/svg">
  <rect width="30" height="30" fill="#016FD0" />
  <path
    d="M25 13V19C25 20.0609 24.5786 21.0783 23.8284 21.8284C23.0783 22.5786 22.0609 23 21 23H9C7.93913 23 6.92172 22.5786 6.17157 21.8284C5.42143 21.0783 5 20.0609 5 19V13H25ZM10.01 17H10C9.86868 17.0007 9.73877 17.0272 9.6177 17.078C9.49662 17.1289 9.38675 17.2031 9.29436 17.2964C9.10776 17.4849 9.00367 17.7398 9.005 18.005C9.00566 18.1363 9.03217 18.2662 9.08303 18.3873C9.1339 18.5084 9.20811 18.6182 9.30143 18.7106C9.39475 18.803 9.50536 18.8761 9.62694 18.9258C9.74851 18.9754 9.87868 19.0007 10.01 19C10.2752 19 10.5296 18.8946 10.7171 18.7071C10.9046 18.5196 11.01 18.2652 11.01 18C11.01 17.7348 10.9046 17.4804 10.7171 17.2929C10.5296 17.1054 10.2752 17 10.01 17ZM16 17H14C13.7348 17 13.4804 17.1054 13.2929 17.2929C13.1054 17.4804 13 17.7348 13 18C13 18.2652 13.1054 18.5196 13.2929 18.7071C13.4804 18.8946 13.7348 19 14 19H16C16.2652 19 16.5196 18.8946 16.7071 18.7071C16.8946 18.5196 17 18.2652 17 18C17 17.7348 16.8946 17.4804 16.7071 17.2929C16.5196 17.1054 16.2652 17 16 17ZM21 7C22.0609 7 23.0783 7.42143 23.8284 8.17157C24.5786 8.92172 25 9.93913 25 11H5C5 9.93913 5.42143 8.92172 6.17157 8.17157C6.92172 7.42143 7.93913 7 9 7H21Z"
    fill="#fff" />
</svg>
  